<svg xmlns="http://www.w3.org/2000/svg" xmlns:xlink="http://www.w3.org/1999/xlink" fill="none" version="1.1" width="16" height="16" viewBox="0 0 16 16"><defs><clipPath id="master_svg0_3_3670/3_3189"><rect x="0" y="0" width="16" height="16" rx="0"/></clipPath></defs><g clip-path="url(#master_svg0_3_3670/3_3189)"><g><path d="M8.000003373069763,1.3333333730697632C4.324023373069763,1.3333333730697632,1.3333333730697632,4.324023373069763,1.3333333730697632,8.000003373069763C1.3333333730697632,11.676033373069764,4.324023373069763,14.666633373069763,8.000003373069763,14.666633373069763C11.676033373069764,14.666633373069763,14.666633373069763,11.676033373069764,14.666633373069763,8.000003373069763C14.666633373069763,4.324023373069763,11.676033373069764,1.3333333730697632,8.000003373069763,1.3333333730697632C8.000003373069763,1.3333333730697632,8.000003373069763,1.3333333730697632,8.000003373069763,1.3333333730697632ZM8.000003373069763,2.333333373069763C11.135533373069762,2.333333373069763,13.666633373069763,4.864463373069763,13.666633373069763,8.000003373069763C13.666633373069763,11.135533373069762,11.135533373069762,13.666633373069763,8.000003373069763,13.666633373069763C4.864463373069763,13.666633373069763,2.333333373069763,11.135533373069762,2.333333373069763,8.000003373069763C2.333333373069763,4.864463373069763,4.864463373069763,2.333333373069763,8.000003373069763,2.333333373069763C8.000003373069763,2.333333373069763,8.000003373069763,2.333333373069763,8.000003373069763,2.333333373069763ZM5.166663373069763,5.333333373069763C5.100413373069763,5.332393373069763,5.034623373069763,5.344643373069763,4.973143373069764,5.369343373069763C4.9116633730697625,5.394053373069763,4.855703373069764,5.430733373069764,4.808513373069763,5.477253373069763C4.761333373069763,5.523773373069763,4.723863373069763,5.579213373069763,4.6982833730697635,5.640343373069763C4.672713373069763,5.701463373069763,4.659543373069763,5.767073373069763,4.659543373069763,5.833333373069763C4.659543373069763,5.899593373069763,4.672713373069763,5.965203373069763,4.6982833730697635,6.026323373069763C4.723863373069763,6.0874533730697635,4.761333373069763,6.1428933730697635,4.808513373069763,6.189413373069764C4.855703373069764,6.235933373069763,4.9116633730697625,6.272613373069763,4.973143373069764,6.297323373069763C5.034623373069763,6.322023373069763,5.100413373069763,6.334273373069763,5.166663373069763,6.333333373069763C5.166663373069763,6.333333373069763,6.500003373069763,6.333333373069763,6.500003373069763,6.333333373069763C6.566253373069763,6.334273373069763,6.632043373069763,6.322023373069763,6.693523373069763,6.297323373069763C6.755003373069763,6.272613373069763,6.810963373069764,6.235933373069763,6.858153373069763,6.189413373069764C6.905333373069763,6.1428933730697635,6.942803373069763,6.0874533730697635,6.968383373069763,6.026323373069763C6.993953373069763,5.965203373069763,7.0071233730697635,5.899593373069763,7.0071233730697635,5.833333373069763C7.0071233730697635,5.767073373069763,6.993953373069763,5.701463373069763,6.968383373069763,5.640343373069763C6.942803373069763,5.579213373069763,6.905333373069763,5.523773373069763,6.858153373069763,5.477253373069763C6.810963373069764,5.430733373069764,6.755003373069763,5.394053373069763,6.693523373069763,5.369343373069763C6.632043373069763,5.344643373069763,6.566253373069763,5.332393373069763,6.500003373069763,5.333333373069763C6.500003373069763,5.333333373069763,5.166663373069763,5.333333373069763,5.166663373069763,5.333333373069763C5.166663373069763,5.333333373069763,5.166663373069763,5.333333373069763,5.166663373069763,5.333333373069763ZM9.500003373069763,5.333333373069763C9.433733373069764,5.332393373069763,9.367933373069762,5.344643373069763,9.306463373069764,5.369343373069763C9.245003373069764,5.394053373069763,9.189063373069764,5.430733373069764,9.141863373069764,5.477253373069763C9.094663373069764,5.523773373069763,9.057203373069763,5.579213373069763,9.031603373069764,5.640343373069763C9.006063373069763,5.701463373069763,8.992863373069763,5.767073373069763,8.992863373069763,5.833333373069763C8.992863373069763,5.899593373069763,9.006063373069763,5.965203373069763,9.031603373069764,6.026323373069763C9.057203373069763,6.0874533730697635,9.094663373069764,6.1428933730697635,9.141863373069764,6.189413373069764C9.189063373069764,6.235933373069763,9.245003373069764,6.272613373069763,9.306463373069764,6.297323373069763C9.367933373069762,6.322023373069763,9.433733373069764,6.334273373069763,9.500003373069763,6.333333373069763C9.500003373069763,6.333333373069763,10.833333373069763,6.333333373069763,10.833333373069763,6.333333373069763C10.899603373069763,6.334273373069763,10.965403373069764,6.322023373069763,11.026863373069764,6.297323373069763C11.088333373069764,6.272613373069763,11.144263373069764,6.235933373069763,11.191463373069762,6.189413373069764C11.238663373069762,6.1428933730697635,11.276133373069763,6.0874533730697635,11.301733373069764,6.026323373069763C11.327263373069764,5.965203373069763,11.340433373069763,5.899593373069763,11.340433373069763,5.833333373069763C11.340433373069763,5.767073373069763,11.327263373069764,5.701463373069763,11.301733373069764,5.640343373069763C11.276133373069763,5.579213373069763,11.238663373069762,5.523773373069763,11.191463373069762,5.477253373069763C11.144263373069764,5.430733373069764,11.088333373069764,5.394053373069763,11.026863373069764,5.369343373069763C10.965403373069764,5.344643373069763,10.899603373069763,5.332393373069763,10.833333373069763,5.333333373069763C10.833333373069763,5.333333373069763,9.500003373069763,5.333333373069763,9.500003373069763,5.333333373069763C9.500003373069763,5.333333373069763,9.500003373069763,5.333333373069763,9.500003373069763,5.333333373069763ZM5.166663373069763,8.000003373069763C5.034063373069763,8.000003373069763,4.906893373069764,8.052663373069763,4.813123373069763,8.146463373069764C4.719363373069763,8.240203373069763,4.6666833730697626,8.367403373069763,4.666663373069763,8.500003373069763C4.666663373069763,10.334933373069763,6.129553373069763,12.000033373069764,8.000003373069763,12.000033373069764C9.870463373069763,12.000033373069764,11.333333373069763,10.334933373069763,11.333333373069763,8.500003373069763C11.333333373069763,8.367403373069763,11.280663373069762,8.240203373069763,11.186863373069762,8.146463373069764C11.093133373069763,8.052663373069763,10.965933373069763,8.000003373069763,10.833333373069763,8.000003373069763C10.833333373069763,8.000003373069763,5.166663373069763,8.000003373069763,5.166663373069763,8.000003373069763C5.166663373069763,8.000003373069763,5.166663373069763,8.000003373069763,5.166663373069763,8.000003373069763ZM5.766923373069763,9.000003373069763C5.766923373069763,9.000003373069763,10.233063373069763,9.000003373069763,10.233063373069763,9.000003373069763C9.998333373069762,10.083933373069764,9.090933373069763,11.000003373069763,8.000003373069763,11.000003373069763C6.909093373069763,11.000003373069763,6.001673373069763,10.083933373069764,5.766923373069763,9.000003373069763C5.766923373069763,9.000003373069763,5.766923373069763,9.000003373069763,5.766923373069763,9.000003373069763Z" fill="#9CA3AF" fill-opacity="1"/></g></g></svg>