<svg xmlns="http://www.w3.org/2000/svg" xmlns:xlink="http://www.w3.org/1999/xlink" fill="none" version="1.1" width="16" height="16" viewBox="0 0 16 16"><defs><clipPath id="master_svg0_3_3183"><rect x="0" y="0" width="16" height="16" rx="0"/></clipPath></defs><g clip-path="url(#master_svg0_3_3183)"><g><path d="M8.000024031333924,0.6666666865348816C6.3466640313339235,0.6666666865348816,5.000004031333923,2.0133366865348816,5.000004031333923,3.6666666865348816C5.000004031333923,3.6666666865348816,5.000004031333923,8.666656686534882,5.000004031333923,8.666656686534882C5.000004031333923,8.736656686534882,5.0031740313339235,8.806396686534882,5.0065040313339235,8.873056686534882C5.0065040313339235,8.873056686534882,5.500004031333924,8.380196686534882,5.500004031333924,8.380196686534882C5.500004031333924,8.380196686534882,5.500004031333924,8.37952668653488,5.500004031333924,8.37952668653488C5.500004031333924,8.37952668653488,5.916664031333923,7.963526686534881,5.916664031333923,7.963526686534881C5.916664031333923,7.963526686534881,10.000024031333924,3.8802066865348817,10.000024031333924,3.8802066865348817C10.000024031333924,3.8802066865348817,10.000024031333924,3.8795566865348814,10.000024031333924,3.8795566865348814C10.000024031333924,3.8795566865348814,10.483094031333923,3.3964866865348817,10.483094031333923,3.3964866865348817C10.483094031333923,3.3964866865348817,10.916694031333924,2.963536686534882,10.916694031333924,2.963536686534882C10.600034031333923,1.6468726865348815,9.410024031333924,0.6666666865348816,8.000024031333924,0.6666666865348816C8.000024031333924,0.6666666865348816,8.000024031333924,0.6666666865348816,8.000024031333924,0.6666666865348816ZM14.156894031333923,1.3287756865348817C14.026994031333924,1.3325596865348817,13.903794031333923,1.3867326865348817,13.813194031333923,1.4798196865348816C13.813194031333923,1.4798196865348816,1.4798180313339233,13.813166686534881,1.4798180313339233,13.813166686534881C1.4318320313339234,13.859166686534882,1.3935213313339234,13.914366686534882,1.3671300313339234,13.975466686534881C1.3407384313339232,14.036566686534881,1.3267962053339233,14.102266686534882,1.3261198775339234,14.168766686534882C1.3254435503339232,14.235266686534882,1.3380467313339233,14.301266686534882,1.3631913313339235,14.36286668653488C1.3883359313339234,14.424466686534881,1.4255167313339234,14.480366686534882,1.4725550313339233,14.527466686534881C1.5195940313339233,14.574466686534882,1.5755460313339233,14.611666686534882,1.6371340313339233,14.636766686534882C1.6987220313339233,14.661966686534882,1.7647080313339234,14.674566686534881,1.8312280313339233,14.67386668653488C1.8977480313339234,14.673166686534882,1.9634640313339233,14.659266686534881,2.0245270313339234,14.632866686534882C2.0855940313339234,14.606466686534882,2.1407740313339234,14.568166686534882,2.186847031333923,14.520166686534882C2.186847031333923,14.520166686534882,4.488934031333923,12.21806668653488,4.488934031333923,12.21806668653488C5.280264031333923,13.002266686534881,6.331874031333923,13.521166686534881,7.500004031333924,13.637966686534881C7.500004031333924,13.637966686534881,7.500004031333924,15.166666686534882,7.500004031333924,15.166666686534882C7.499064031333924,15.232966686534882,7.511304031333923,15.298766686534881,7.536014031333924,15.360166686534882C7.5607240313339235,15.421666686534882,7.597404031333923,15.477566686534882,7.643924031333923,15.524766686534882C7.690444031333923,15.571966686534882,7.745884031333923,15.609466686534882,7.807004031333923,15.635066686534882C7.868134031333923,15.660566686534882,7.933744031333923,15.673766686534881,8.000024031333924,15.673766686534881C8.066294031333923,15.673766686534881,8.131894031333923,15.660566686534882,8.192964031333922,15.635066686534882C8.254094031333924,15.609466686534882,8.309564031333924,15.571966686534882,8.356094031333924,15.524766686534882C8.402634031333923,15.477566686534882,8.439294031333922,15.421666686534882,8.463964031333923,15.360166686534882C8.488694031333925,15.298766686534881,8.500964031333924,15.232966686534882,8.500024031333924,15.166666686534882C8.500024031333924,15.166666686534882,8.500024031333924,13.641266686534882,8.500024031333924,13.641266686534882C11.022834031333923,13.389466686534881,12.999994031333923,11.254566686534881,12.999994031333923,8.666656686534882C12.999994031333923,8.666656686534882,12.999994031333923,7.499996686534882,12.999994031333923,7.499996686534882C12.999994031333923,7.2233266865348815,12.776694031333923,6.999996686534882,12.499994031333923,6.999996686534882C12.223394031333923,6.999996686534882,11.999994031333923,7.2233266865348815,11.999994031333923,7.499996686534882C11.999994031333923,7.499996686534882,11.999994031333923,8.666656686534882,11.999994031333923,8.666656686534882C11.999994031333923,10.853366686534882,10.238364031333923,12.631366686534882,8.059224031333923,12.663366686534882C8.053624031333923,12.662666686534882,8.047964031333922,12.661966686534882,8.042294031333924,12.661466686534881C8.025624031333923,12.659966686534881,8.008894031333924,12.65936668653488,7.992184031333923,12.659566686534882C7.975434031333923,12.659766686534882,7.958704031333923,12.660866686534881,7.942064031333923,12.662766686534882C7.941184031333924,12.662966686534881,7.940324031333923,12.66316668653488,7.9394540313339235,12.663366686534882C7.939234031333923,12.663366686534882,7.939024031333924,12.663366686534882,7.938804031333923,12.663366686534882C6.869994031333923,12.64716668653488,5.902564031333923,12.211266686534882,5.195314031333924,11.511766686534882C5.195314031333924,11.511766686534882,5.904294031333923,10.802766686534882,5.904294031333923,10.802766686534882C6.445924031333924,11.334266686534882,7.183264031333923,11.666666686534882,8.000024031333924,11.666666686534882C9.653364031333924,11.666666686534882,11.000024031333924,10.319996686534882,11.000024031333924,8.666656686534882C11.000024031333924,8.666656686534882,11.000024031333924,5.707026686534881,11.000024031333924,5.707026686534881C11.000024031333924,5.707026686534881,14.520194031333924,2.1868466865348815,14.520194031333924,2.1868466865348815C14.592294031333923,2.1165966865348818,14.641594031333923,2.0262066865348816,14.661494031333923,1.9275066865348816C14.681394031333923,1.8287966865348817,14.670994031333924,1.7263866865348816,14.631794031333923,1.6336656865348815C14.592494031333924,1.5409396865348817,14.526194031333924,1.4622326865348816,14.441394031333923,1.4078326865348816C14.356794031333923,1.3534326865348816,14.257594031333923,1.3258766865348814,14.156894031333923,1.3287756865348817C14.156894031333923,1.3287756865348817,14.156894031333923,1.3287756865348817,14.156894031333923,1.3287756865348817ZM3.500004031333923,6.999996686534882C3.2233340313339234,6.999996686534882,3.0000040313339236,7.2233266865348815,3.0000040313339236,7.499996686534882C3.0000040313339236,7.499996686534882,3.0000040313339236,8.666656686534882,3.0000040313339236,8.666656686534882C3.0000040313339236,9.323326686534882,3.1267640313339236,9.950126686534881,3.3567640313339235,10.523456686534882C3.3567640313339235,10.523456686534882,4.146484031333923,9.733056686534882,4.146484031333923,9.733056686534882C4.049824031333923,9.393056686534882,4.000004031333923,9.036656686534881,4.000004031333923,8.666656686534882C4.000004031333923,8.666656686534882,4.000004031333923,7.499996686534882,4.000004031333923,7.499996686534882C4.000004031333923,7.2233266865348815,3.7766640313339233,6.999996686534882,3.500004031333923,6.999996686534882C3.500004031333923,6.999996686534882,3.500004031333923,6.999996686534882,3.500004031333923,6.999996686534882Z" fill="#374151" fill-opacity="1"/></g></g></svg>