<svg xmlns="http://www.w3.org/2000/svg" xmlns:xlink="http://www.w3.org/1999/xlink" fill="none" version="1.1" width="24" height="24" viewBox="0 0 24 24"><defs><clipPath id="master_svg0_3_3380/3_0528/3_963"><rect x="0" y="0" width="24" height="24" rx="0"/></clipPath></defs><g clip-path="url(#master_svg0_3_3380/3_0528/3_963)"><g><path d="M12.000003706054688,1C9.523643706054688,1,7.500003706054688,3.02364,7.500003706054688,5.5C7.500003706054688,5.5,7.500003706054688,13,7.500003706054688,13C7.500003706054688,15.4764,9.523643706054688,17.5,12.000003706054688,17.5C14.476363706054688,17.5,16.500023706054687,15.4764,16.500023706054687,13C16.500023706054687,13,16.500023706054687,5.5,16.500023706054687,5.5C16.500023706054687,3.02364,14.476363706054688,1,12.000003706054688,1C12.000003706054688,1,12.000003706054688,1,12.000003706054688,1ZM5.238281706054687,10.48926C5.039539706054687,10.49236,4.850156706054688,10.57423,4.7117287060546875,10.71686C4.573301606054687,10.8595,4.497150016054688,11.0513,4.500000965854688,11.25C4.500000965854688,11.25,4.500000965854688,13,4.500000965854688,13C4.500000965854688,16.8803,7.467023706054688,20.0841,11.250003706054688,20.4619C11.250003706054688,20.4619,11.250003706054688,22.75,11.250003706054688,22.75C11.248593706054688,22.8494,11.266953706054688,22.9481,11.304013706054688,23.0403C11.341073706054686,23.1325,11.396093706054687,23.2164,11.465883706054687,23.2872C11.535663706054688,23.358,11.618813706054688,23.4142,11.710513706054687,23.4526C11.802203706054687,23.4909,11.900603706054689,23.5107,12.000003706054688,23.5107C12.099393706054688,23.5107,12.197793706054687,23.4909,12.289493706054689,23.4526C12.381183706054689,23.4142,12.464333706054688,23.358,12.534123706054688,23.2872C12.603903706054687,23.2164,12.658923706054688,23.1325,12.695983706054687,23.0403C12.733043706054687,22.9481,12.751403706054688,22.8494,12.750003706054688,22.75C12.750003706054688,22.75,12.750003706054688,20.4619,12.750003706054688,20.4619C16.533023706054685,20.0841,19.500023706054687,16.8803,19.500023706054687,13C19.500023706054687,13,19.500023706054687,11.25,19.500023706054687,11.25C19.501423706054688,11.1506,19.483023706054688,11.0519,19.44602370605469,10.95972C19.408923706054686,10.86749,19.353923706054687,10.78355,19.284123706054686,10.71277C19.214323706054685,10.642,19.131223706054687,10.58579,19.039523706054688,10.54743C18.947823706054688,10.50907,18.849423706054687,10.48932,18.750023706054687,10.48932C18.650623706054688,10.48932,18.55222370605469,10.50907,18.460523706054687,10.54743C18.368823706054688,10.58579,18.285623706054686,10.642,18.21592370605469,10.71277C18.146123706054688,10.78355,18.091123706054688,10.86749,18.054023706054686,10.95972C18.016923706054687,11.0519,17.998623706054687,11.1506,18.000023706054687,11.25C18.000023706054687,11.25,18.000023706054687,13,18.000023706054687,13C18.000023706054687,16.2927,15.369823706054687,18.9474,12.088863706054688,18.9951C12.055503706054687,18.9909,12.021903706054687,18.989,11.988283706054688,18.9893C11.960853706054689,18.9897,11.933463706054688,18.9917,11.906253706054688,18.9951C8.627563706054687,18.9448,6.000003706054688,16.291,6.000003706054688,13C6.000003706054688,13,6.000003706054688,11.25,6.000003706054688,11.25C6.001443706054688,11.1496,5.982713706054687,11.05,5.944933706054687,10.95695C5.907153706054688,10.86394,5.851083706054688,10.77946,5.780043706054688,10.70852C5.709013706054687,10.63758,5.6244537060546875,10.58161,5.531393706054688,10.54395C5.438336706054687,10.50629,5.338662706054688,10.48769,5.238281706054687,10.48926C5.238281706054687,10.48926,5.238281706054687,10.48926,5.238281706054687,10.48926Z" fill="#C4C4C4" fill-opacity="1"/></g></g></svg>