<svg xmlns="http://www.w3.org/2000/svg" xmlns:xlink="http://www.w3.org/1999/xlink" fill="none" version="1.1" width="24" height="24" viewBox="0 0 24 24"><defs><clipPath id="master_svg0_3_3421/3_0551"><rect x="0" y="0" width="24" height="24" rx="0"/></clipPath></defs><g style="opacity:0.25;" clip-path="url(#master_svg0_3_3421/3_0551)"><g><path d="M5.750002752380372,2.999999904247583C4.240112752380371,2.999999904247583,3.000000012180371,4.240114898147583,3.000000012180371,5.749994898147583C3.000000012180371,5.749994898147583,3.000000012180371,8.749994898147584,3.000000012180371,8.749994898147584C2.998594472380371,8.849384898147584,3.016955352380371,8.948054898147582,3.054015652380371,9.040284898147583C3.091075952380371,9.132504898147584,3.146096752380371,9.216444898147582,3.215879752380371,9.287224898147583C3.285663752380371,9.358004898147584,3.3688177523803713,9.414204898147583,3.460510752380371,9.452564898147582C3.552203752380371,9.490924898147583,3.650605752380371,9.510684898147584,3.749999752380371,9.510684898147584C3.849393752380371,9.510684898147584,3.947796752380371,9.490924898147583,4.039492752380371,9.452564898147582C4.131182752380371,9.414204898147583,4.214332752380371,9.358004898147584,4.284122752380371,9.287224898147583C4.353902752380371,9.216444898147582,4.408922752380371,9.132504898147584,4.445982752380371,9.040284898147583C4.483042752380371,8.948054898147582,4.501402752380371,8.849384898147584,4.500002752380372,8.749994898147584C4.500002752380372,8.749994898147584,4.500002752380372,5.749994898147583,4.500002752380372,5.749994898147583C4.500002752380372,5.050884898147583,5.050882752380371,4.499994898147583,5.750002752380372,4.499994898147583C5.750002752380372,4.499994898147583,8.750002752380372,4.499994898147583,8.750002752380372,4.499994898147583C8.849382752380372,4.501404898147583,8.94805275238037,4.483044898147583,9.04028275238037,4.445984898147583C9.132512752380372,4.408924898147583,9.21645275238037,4.353904898147583,9.287222752380371,4.284114898147583C9.358002752380372,4.214334898147583,9.41420275238037,4.131184898147583,9.452572752380371,4.039484898147583C9.49093275238037,3.947795898147583,9.510682752380372,3.849393898147583,9.510682752380372,3.749999898147583C9.510682752380372,3.650605898147583,9.49093275238037,3.5522028981475833,9.452572752380371,3.460509898147583C9.41420275238037,3.368817898147583,9.358002752380372,3.285662898147583,9.287222752380371,3.215879898147583C9.21645275238037,3.146096898147583,9.132512752380372,3.091075798147583,9.04028275238037,3.054015498147583C8.94805275238037,3.016955198147583,8.849382752380372,2.998594368147583,8.750002752380372,2.999999904247583C8.750002752380372,2.999999904247583,5.750002752380372,2.999999904247583,5.750002752380372,2.999999904247583C5.750002752380372,2.999999904247583,5.750002752380372,2.999999904247583,5.750002752380372,2.999999904247583ZM15.25002275238037,2.999999904247583C15.150622752380372,2.998594368147583,15.05192275238037,3.016955198147583,14.95972275238037,3.054015498147583C14.86752275238037,3.091075798147583,14.783522752380371,3.146096898147583,14.71282275238037,3.215879898147583C14.64202275238037,3.285662898147583,14.585822752380372,3.368817898147583,14.54742275238037,3.460509898147583C14.509122752380371,3.5522028981475833,14.489322752380371,3.650605898147583,14.489322752380371,3.749999898147583C14.489322752380371,3.849393898147583,14.509122752380371,3.947795898147583,14.54742275238037,4.039484898147583C14.585822752380372,4.131184898147583,14.64202275238037,4.214334898147583,14.71282275238037,4.284114898147583C14.783522752380371,4.353904898147583,14.86752275238037,4.408924898147583,14.95972275238037,4.445984898147583C15.05192275238037,4.483044898147583,15.150622752380372,4.501404898147583,15.25002275238037,4.499994898147583C15.25002275238037,4.499994898147583,18.25002275238037,4.499994898147583,18.25002275238037,4.499994898147583C18.94912275238037,4.499994898147583,19.50002275238037,5.050884898147583,19.50002275238037,5.749994898147583C19.50002275238037,5.749994898147583,19.50002275238037,8.749994898147584,19.50002275238037,8.749994898147584C19.49862275238037,8.849384898147584,19.51692275238037,8.948054898147582,19.55402275238037,9.040284898147583C19.59112275238037,9.132504898147584,19.64612275238037,9.216444898147582,19.715922752380372,9.287224898147583C19.78562275238037,9.358004898147584,19.86882275238037,9.414204898147583,19.96052275238037,9.452564898147582C20.05222275238037,9.490924898147583,20.15062275238037,9.510684898147584,20.25002275238037,9.510684898147584C20.34942275238037,9.510684898147584,20.44782275238037,9.490924898147583,20.53952275238037,9.452564898147582C20.63122275238037,9.414204898147583,20.714322752380372,9.358004898147584,20.78412275238037,9.287224898147583C20.85392275238037,9.216444898147582,20.90892275238037,9.132504898147584,20.946022752380372,9.040284898147583C20.98302275238037,8.948054898147582,21.00142275238037,8.849384898147584,21.00002275238037,8.749994898147584C21.00002275238037,8.749994898147584,21.00002275238037,5.749994898147583,21.00002275238037,5.749994898147583C21.00002275238037,4.240114898147583,19.759922752380373,2.999999904247583,18.25002275238037,2.999999904247583C18.25002275238037,2.999999904247583,15.25002275238037,2.999999904247583,15.25002275238037,2.999999904247583C15.25002275238037,2.999999904247583,15.25002275238037,2.999999904247583,15.25002275238037,2.999999904247583ZM3.738281752380371,14.489224898147583C3.539539752380371,14.492324898147583,3.3501557523803713,14.574224898147582,3.211727752380371,14.716824898147584C3.073300652380371,14.859524898147583,2.997149062380371,15.051224898147582,3.000000012180371,15.250024898147583C3.000000012180371,15.250024898147583,3.000000012180371,18.250024898147583,3.000000012180371,18.250024898147583C3.000000012180371,19.759924898147585,4.240112752380371,21.000024898147583,5.750002752380372,21.000024898147583C5.750002752380372,21.000024898147583,8.750002752380372,21.000024898147583,8.750002752380372,21.000024898147583C8.849382752380372,21.001424898147583,8.94805275238037,20.983024898147583,9.04028275238037,20.946024898147584C9.132512752380372,20.908924898147582,9.21645275238037,20.853924898147582,9.287222752380371,20.78412489814758C9.358002752380372,20.714324898147584,9.41420275238037,20.631224898147583,9.452572752380371,20.539524898147583C9.49093275238037,20.447824898147584,9.510682752380372,20.349424898147582,9.510682752380372,20.250024898147583C9.510682752380372,20.150624898147584,9.49093275238037,20.052224898147582,9.452572752380371,19.960524898147582C9.41420275238037,19.868824898147583,9.358002752380372,19.78562489814758,9.287222752380371,19.715924898147584C9.21645275238037,19.646124898147583,9.132512752380372,19.591024898147584,9.04028275238037,19.55402489814758C8.94805275238037,19.516924898147582,8.849382752380372,19.498624898147582,8.750002752380372,19.500024898147583C8.750002752380372,19.500024898147583,5.750002752380372,19.500024898147583,5.750002752380372,19.500024898147583C5.050882752380371,19.500024898147583,4.500002752380372,18.94912489814758,4.500002752380372,18.250024898147583C4.500002752380372,18.250024898147583,4.500002752380372,15.250024898147583,4.500002752380372,15.250024898147583C4.501442752380371,15.149624898147582,4.482712752380371,15.049924898147584,4.444932752380371,14.956924898147584C4.407152752380371,14.863924898147584,4.351082752380371,14.779424898147584,4.280042752380371,14.708524898147584C4.209012752380371,14.637524898147584,4.124462752380371,14.581624898147583,4.031392752380372,14.543924898147583C3.938336752380371,14.506324898147582,3.838661752380371,14.487724898147583,3.738281752380371,14.489224898147583C3.738281752380371,14.489224898147583,3.738281752380371,14.489224898147583,3.738281752380371,14.489224898147583ZM20.23832275238037,14.489224898147583C20.03952275238037,14.492324898147583,19.850122752380372,14.574224898147582,19.71172275238037,14.716824898147584C19.57332275238037,14.859524898147583,19.49712275238037,15.051224898147582,19.50002275238037,15.250024898147583C19.50002275238037,15.250024898147583,19.50002275238037,18.250024898147583,19.50002275238037,18.250024898147583C19.50002275238037,18.94912489814758,18.94912275238037,19.500024898147583,18.25002275238037,19.500024898147583C18.25002275238037,19.500024898147583,15.25002275238037,19.500024898147583,15.25002275238037,19.500024898147583C15.150622752380372,19.498624898147582,15.05192275238037,19.516924898147582,14.95972275238037,19.55402489814758C14.86752275238037,19.591024898147584,14.783522752380371,19.646124898147583,14.71282275238037,19.715924898147584C14.64202275238037,19.78562489814758,14.585822752380372,19.868824898147583,14.54742275238037,19.960524898147582C14.509122752380371,20.052224898147582,14.489322752380371,20.150624898147584,14.489322752380371,20.250024898147583C14.489322752380371,20.349424898147582,14.509122752380371,20.447824898147584,14.54742275238037,20.539524898147583C14.585822752380372,20.631224898147583,14.64202275238037,20.714324898147584,14.71282275238037,20.78412489814758C14.783522752380371,20.853924898147582,14.86752275238037,20.908924898147582,14.95972275238037,20.946024898147584C15.05192275238037,20.983024898147583,15.150622752380372,21.001424898147583,15.25002275238037,21.000024898147583C15.25002275238037,21.000024898147583,18.25002275238037,21.000024898147583,18.25002275238037,21.000024898147583C19.759922752380373,21.000024898147583,21.00002275238037,19.759924898147585,21.00002275238037,18.250024898147583C21.00002275238037,18.250024898147583,21.00002275238037,15.250024898147583,21.00002275238037,15.250024898147583C21.00142275238037,15.149624898147582,20.982722752380372,15.049924898147584,20.94492275238037,14.956924898147584C20.90712275238037,14.863924898147584,20.85112275238037,14.779424898147584,20.780022752380372,14.708524898147584C20.70902275238037,14.637524898147584,20.624422752380372,14.581624898147583,20.531422752380372,14.543924898147583C20.438322752380373,14.506324898147582,20.33862275238037,14.487724898147583,20.23832275238037,14.489224898147583C20.23832275238037,14.489224898147583,20.23832275238037,14.489224898147583,20.23832275238037,14.489224898147583Z" fill="#9CA3AF" fill-opacity="1"/></g></g></svg>