<svg xmlns="http://www.w3.org/2000/svg" xmlns:xlink="http://www.w3.org/1999/xlink" fill="none" version="1.1" width="24" height="24" viewBox="0 0 24 24"><g style="opacity:0.25;"><g><path d="M3,7C3,4.79086,4.79086,3,7,3C7,3,14,3,14,3C14,3,14,21,14,21C14,21,7,21,7,21C4.79086,21,3,19.2091,3,17C3,17,3,7,3,7C3,7,3,7,3,7ZM15,3C15,3,17.25,3,17.25,3C19.3211,3,21,4.67893,21,6.75C21,6.75,15,6.75,15,6.75C15,6.75,15,3,15,3C15,3,15,3,15,3ZM15,7.75C15,7.75,21,7.75,21,7.75C21,7.75,21,11.5,21,11.5C21,11.5,15,11.5,15,11.5C15,11.5,15,7.75,15,7.75C15,7.75,15,7.75,15,7.75ZM15,12.5C15,12.5,21,12.5,21,12.5C21,12.5,21,16.25,21,16.25C21,16.25,15,16.25,15,16.25C15,16.25,15,12.5,15,12.5C15,12.5,15,12.5,15,12.5ZM15,17.25C15,17.25,21,17.25,21,17.25C21,19.3211,19.3211,21,17.25,21C17.25,21,15,21,15,21C15,21,15,17.25,15,17.25C15,17.25,15,17.25,15,17.25Z" fill="#C4C4C4" fill-opacity="1"/></g></g></svg>