<svg xmlns="http://www.w3.org/2000/svg" xmlns:xlink="http://www.w3.org/1999/xlink" fill="none" version="1.1" width="24" height="24" viewBox="0 0 24 24"><g style="opacity:0.25;"><g><path d="M3,7C3,4.79086,4.79086,3,7,3C7,3,11.5,3,11.5,3C11.5,3,11.5,11.5,11.5,11.5C11.5,11.5,3,11.5,3,11.5C3,11.5,3,7,3,7C3,7,3,7,3,7ZM3,12.5C3,12.5,11.5,12.5,11.5,12.5C11.5,12.5,11.5,21,11.5,21C11.5,21,7,21,7,21C4.79086,21,3,19.2091,3,17C3,17,3,12.5,3,12.5C3,12.5,3,12.5,3,12.5ZM12.5,3C12.5,3,17,3,17,3C19.2091,3,21,4.79086,21,7C21,7,21,11.5,21,11.5C21,11.5,12.5,11.5,12.5,11.5C12.5,11.5,12.5,3,12.5,3C12.5,3,12.5,3,12.5,3ZM12.5,12.5C12.5,12.5,21,12.5,21,12.5C21,12.5,21,17,21,17C21,19.2091,19.2091,21,17,21C17,21,12.5,21,12.5,21C12.5,21,12.5,12.5,12.5,12.5C12.5,12.5,12.5,12.5,12.5,12.5Z" fill="#C4C4C4" fill-opacity="1"/></g></g></svg>