<svg xmlns="http://www.w3.org/2000/svg" xmlns:xlink="http://www.w3.org/1999/xlink" fill="none" version="1.1" width="24" height="24" viewBox="0 0 24 24"><defs><clipPath id="master_svg0_3_3372/3_0528"><rect x="0" y="0" width="24" height="24" rx="0"/></clipPath></defs><g clip-path="url(#master_svg0_3_3372/3_0528)"><g><path d="M12.750006983566283,1.5C11.877506983566285,1.5,11.121456983566285,2.013053,10.749026983566285,2.74707C10.446106983566285,2.5941099999999997,10.109686983566284,2.5,9.749996983566284,2.5C8.516246983566283,2.5,7.499996983566284,3.51625,7.499996983566284,4.75C7.499996983566284,4.75,7.499996983566284,13.9912,7.499996983566284,13.9912C6.766156983566284,13.5731,5.854246983566284,13.0453,5.207026983566284,12.7637C4.842476983566284,12.605,4.437776983566284,12.5,4.0078169835662845,12.5C2.981976983566284,12.5,2.249595983566284,13.0318,1.9033199835662842,13.5518C1.5570449835662843,14.0717,1.5039062335662843,14.6055,1.5039062335662843,14.6055C1.4913560235662842,14.7236,1.5070332335662842,14.843,1.5496476835662842,14.9538C1.5922620835662842,15.0647,1.660594983566284,15.1639,1.7490229835662843,15.2432C1.7490229835662843,15.2432,5.920226983566284,18.9986,7.095706983566284,20.2422C8.083046983566284,21.2864,9.432306983566285,22.0299,10.960936983566285,22C10.960936983566285,22,15.217806983566284,22,15.217806983566284,22C18.388206983566285,22.0287,20.971406983566283,19.4453,21.000006983566283,16.2822C21.000006983566283,16.279899999999998,21.000006983566283,16.2777,21.000006983566283,16.275399999999998C21.000006983566283,16.275399999999998,21.000006983566283,6.75,21.000006983566283,6.75C21.000006983566283,5.51625,19.983706983566286,4.5,18.750006983566283,4.5C18.482406983566285,4.5,18.228206983566285,4.5550999999999995,17.989306983566284,4.642580000000001C17.931306983566284,3.45879,16.947006983566283,2.5,15.750006983566283,2.5C15.385106983566285,2.5,15.053206983566284,2.60948,14.747106983566285,2.7666C14.376906983566284,2.025985,13.627406983566285,1.5,12.750006983566283,1.5C12.750006983566283,1.5,12.750006983566283,1.5,12.750006983566283,1.5ZM12.750006983566283,3C13.173206983566285,3,13.500006983566283,3.32675,13.500006983566283,3.75C13.500006983566283,3.75,13.500006983566283,4.75,13.500006983566283,4.75C13.500006983566283,4.75,13.500006983566283,11.25,13.500006983566283,11.25C13.498606983566285,11.34938,13.517006983566285,11.44806,13.554006983566284,11.5403C13.591106983566284,11.6325,13.646106983566284,11.7164,13.715906983566285,11.7872C13.785706983566284,11.858,13.868806983566284,11.9142,13.960506983566285,11.9526C14.052206983566284,11.9909,14.150606983566284,12.0107,14.250006983566283,12.0107C14.349406983566285,12.0107,14.447806983566284,11.9909,14.539506983566284,11.9526C14.631206983566285,11.9142,14.714306983566285,11.858,14.784106983566284,11.7872C14.853906983566285,11.7164,14.908906983566284,11.6325,14.946006983566285,11.5403C14.983006983566284,11.44806,15.001406983566284,11.34938,15.000006983566283,11.25C15.000006983566283,11.25,15.000006983566283,4.75,15.000006983566283,4.75C15.000006983566283,4.3267500000000005,15.326706983566284,4,15.750006983566283,4C16.173206983566285,4,16.500006983566283,4.3267500000000005,16.500006983566283,4.75C16.500006983566283,4.75,16.500006983566283,6.75,16.500006983566283,6.75C16.500006983566283,6.75,16.500006983566283,11.75,16.500006983566283,11.75C16.498606983566283,11.8494,16.517006983566283,11.9481,16.554006983566282,12.0403C16.591106983566284,12.1325,16.646106983566284,12.2164,16.715906983566285,12.2872C16.785706983566286,12.358,16.868806983566284,12.4142,16.960506983566283,12.4526C17.052206983566286,12.4909,17.150606983566284,12.5107,17.250006983566283,12.5107C17.349406983566283,12.5107,17.447806983566284,12.4909,17.539506983566284,12.4526C17.631206983566283,12.4142,17.714306983566285,12.358,17.784106983566286,12.2872C17.853906983566283,12.2164,17.908906983566283,12.1325,17.946006983566285,12.0403C17.983006983566284,11.9481,18.001406983566284,11.8494,18.000006983566283,11.75C18.000006983566283,11.75,18.000006983566283,6.75,18.000006983566283,6.75C18.000006983566283,6.32675,18.326706983566286,6,18.750006983566283,6C19.173206983566285,6,19.500006983566283,6.32675,19.500006983566283,6.75C19.500006983566283,6.75,19.500006983566283,16.2686,19.500006983566283,16.2686C19.478606983566284,18.6285,17.584006983566283,20.5213,15.231406983566284,20.5C15.229206983566284,20.5,15.226906983566284,20.5,15.224606983566284,20.5C15.224606983566284,20.5,10.946286983566285,20.5,10.946286983566285,20.5C10.941406983566285,20.5,10.936526983566285,20.5,10.931636983566284,20.5C9.906526983566284,20.5201,8.953086983566283,20.0224,8.186526983566285,19.2119C8.186526983566285,19.2119,8.185546983566283,19.2119,8.185546983566283,19.2119C6.930116983566284,17.8839,3.600096983566284,14.9029,3.1162069835662844,14.4688C3.1359069835662843,14.4276,3.121726983566284,14.4273,3.151366983566284,14.3828C3.2829669835662845,14.1852,3.4291569835662843,14,4.0078169835662845,14C4.191846983566284,14,4.393956983566284,14.0463,4.608396983566284,14.1396C5.172116983566284,14.3849,6.372666983566284,15.0637,7.1328169835662845,15.4961C7.935466983566284,15.9541,8.999996983566284,15.3305,8.999996983566284,14.4092C8.999996983566284,14.4092,8.999996983566284,4.75,8.999996983566284,4.75C8.999996983566284,4.3267500000000005,9.326746983566284,4,9.749996983566284,4C10.173246983566283,4,10.499996983566284,4.3267500000000005,10.499996983566284,4.75C10.499996983566284,4.75,10.499996983566284,11.25,10.499996983566284,11.25C10.498596983566284,11.34938,10.516956983566285,11.44806,10.554016983566283,11.5403C10.591076983566284,11.6325,10.646096983566284,11.7164,10.715876983566284,11.7872C10.785666983566284,11.858,10.868816983566283,11.9142,10.960506983566285,11.9526C11.052206983566284,11.9909,11.150606983566284,12.0107,11.249996983566284,12.0107C11.349396983566285,12.0107,11.447796983566285,11.9909,11.539506983566284,11.9526C11.631206983566285,11.9142,11.714306983566285,11.858,11.784106983566284,11.7872C11.853906983566285,11.7164,11.908906983566284,11.6325,11.946006983566285,11.5403C11.983006983566284,11.44806,12.001406983566284,11.34938,12.000006983566283,11.25C12.000006983566283,11.25,12.000006983566283,4.75,12.000006983566283,4.75C12.000006983566283,4.75,12.000006983566283,3.75,12.000006983566283,3.75C12.000006983566283,3.32675,12.326706983566284,3,12.750006983566283,3C12.750006983566283,3,12.750006983566283,3,12.750006983566283,3Z" fill="#9CA3AF" fill-opacity="1"/></g></g></svg>