<svg xmlns="http://www.w3.org/2000/svg" xmlns:xlink="http://www.w3.org/1999/xlink" fill="none" version="1.1" width="24" height="24" viewBox="0 0 24 24"><g><g><path d="M3,7C3,4.79086,4.79086,3,7,3C7,3,8.33333,3,8.33333,3C8.33333,3,8.33333,8.33333,8.33333,8.33333C8.33333,8.33333,3,8.33333,3,8.33333C3,8.33333,3,7,3,7C3,7,3,7,3,7ZM3,9.33333C3,9.33333,8.33333,9.33333,8.33333,9.33333C8.33333,9.33333,8.33333,14.6667,8.33333,14.6667C8.33333,14.6667,3,14.6667,3,14.6667C3,14.6667,3,9.33333,3,9.33333C3,9.33333,3,9.33333,3,9.33333ZM3,15.6667C3,15.6667,8.33333,15.6667,8.33333,15.6667C8.33333,15.6667,8.33333,21,8.33333,21C8.33333,21,7,21,7,21C4.79086,21,3,19.2091,3,17C3,17,3,15.6667,3,15.6667C3,15.6667,3,15.6667,3,15.6667ZM9.33333,3C9.33333,3,14.6667,3,14.6667,3C14.6667,3,14.6667,8.33333,14.6667,8.33333C14.6667,8.33333,9.33333,8.33333,9.33333,8.33333C9.33333,8.33333,9.33333,3,9.33333,3C9.33333,3,9.33333,3,9.33333,3ZM9.33333,9.33333C9.33333,9.33333,14.6667,9.33333,14.6667,9.33333C14.6667,9.33333,14.6667,14.6667,14.6667,14.6667C14.6667,14.6667,9.33333,14.6667,9.33333,14.6667C9.33333,14.6667,9.33333,9.33333,9.33333,9.33333C9.33333,9.33333,9.33333,9.33333,9.33333,9.33333ZM9.33333,15.6667C9.33333,15.6667,14.6667,15.6667,14.6667,15.6667C14.6667,15.6667,14.6667,21,14.6667,21C14.6667,21,9.33333,21,9.33333,21C9.33333,21,9.33333,15.6667,9.33333,15.6667C9.33333,15.6667,9.33333,15.6667,9.33333,15.6667ZM15.6667,3C15.6667,3,17,3,17,3C19.2091,3,21,4.79086,21,7C21,7,21,8.33333,21,8.33333C21,8.33333,15.6667,8.33333,15.6667,8.33333C15.6667,8.33333,15.6667,3,15.6667,3C15.6667,3,15.6667,3,15.6667,3ZM15.6667,9.33333C15.6667,9.33333,21,9.33333,21,9.33333C21,9.33333,21,14.6667,21,14.6667C21,14.6667,15.6667,14.6667,15.6667,14.6667C15.6667,14.6667,15.6667,9.33333,15.6667,9.33333C15.6667,9.33333,15.6667,9.33333,15.6667,9.33333ZM15.6667,15.6667C15.6667,15.6667,21,15.6667,21,15.6667C21,15.6667,21,17,21,17C21,19.2091,19.2091,21,17,21C17,21,15.6667,21,15.6667,21C15.6667,21,15.6667,15.6667,15.6667,15.6667C15.6667,15.6667,15.6667,15.6667,15.6667,15.6667Z" fill="#FFFFFF" fill-opacity="1"/></g></g></svg>